<svg id="App_Logo" data-name="App Logo" xmlns="http://www.w3.org/2000/svg" viewBox="0 0 494.09 342.53"><defs><style>.cls-1,.cls-2,.cls-6{fill:#fff;}.cls-1{stroke:#016969;stroke-miterlimit:10;stroke-width:2px;}.cls-2{font-size:39.88px;}.cls-2,.cls-6{font-family:Arial-BoldMT, Arial;font-weight:700;}.cls-3{letter-spacing:-0.02em;}.cls-4{letter-spacing:0em;}.cls-5{letter-spacing:-0.07em;}.cls-6{font-size:19.13px;}.cls-7{letter-spacing:-0.02em;}.cls-8{letter-spacing:-0.07em;}</style></defs><title>svg LOGO</title><rect class="cls-1" x="209.81" y="214.86" width="172.97" height="172.97" rx="20.32" transform="translate(245.49 -307.71) rotate(45)"/><rect class="cls-1" x="190.97" y="63.49" width="86.37" height="106.29" rx="6.26"/><rect class="cls-1" x="200.5" y="71.32" width="66.59" height="88.22"/><rect class="cls-1" x="233.51" y="87.25" width="62.32" height="62.32"/><path class="cls-1" d="M212.59,63.49H254a0,0,0,0,1,0,0v8.59a8.41,8.41,0,0,1-8.41,8.41H221a8.41,8.41,0,0,1-8.41-8.41V63.49A0,0,0,0,1,212.59,63.49Z"/><line class="cls-1" x1="233.28" y1="94.84" x2="211.59" y2="94.84"/><line class="cls-1" x1="233.28" y1="105.91" x2="211.59" y2="105.91"/><line class="cls-1" x1="233.28" y1="116.98" x2="211.59" y2="116.98"/><line class="cls-1" x1="233.28" y1="128.04" x2="211.59" y2="128.04"/><line class="cls-1" x1="233.28" y1="139.11" x2="211.59" y2="139.11"/><path class="cls-1" d="M295.25,291.54h8.94c.33-.12,12.57-14.25,32.67,0h7.28" transform="translate(-54.38 -186.46)"/><path class="cls-1" d="M302.51,291.89l-8.27,18.34a.68.68,0,0,0,.62,1h16.55a.68.68,0,0,0,.62-1l-8.27-18.34A.68.68,0,0,0,302.51,291.89Z" transform="translate(-54.38 -186.46)"/><path class="cls-1" d="M336.35,291.89l-8.27,18.34a.68.68,0,0,0,.62,1h16.55a.68.68,0,0,0,.62-1l-8.27-18.34A.68.68,0,0,0,336.35,291.89Z" transform="translate(-54.38 -186.46)"/><rect class="cls-1" x="257.37" y="133.26" width="15.31" height="7.69" rx="1.57"/><line class="cls-1" x1="264.67" y1="95.5" x2="264.67" y2="133.79"/><path class="cls-1" d="M239.47,124.74h18a.28.28,0,0,1,.28.28V126a3.85,3.85,0,0,1-3.85,3.85H243a3.85,3.85,0,0,1-3.85-3.85V125A.28.28,0,0,1,239.47,124.74Z"/><path class="cls-1" d="M273.62,124.74h18a.28.28,0,0,1,.28.28V126a3.85,3.85,0,0,1-3.85,3.85H277.18a3.85,3.85,0,0,1-3.85-3.85V125A.28.28,0,0,1,273.62,124.74Z"/><text class="cls-2" transform="translate(0 308.27) scale(1.11 1)">LEGA<tspan class="cls-3" x="110.77" y="0">L</tspan><tspan class="cls-4" x="134.41" y="0" xml:space="preserve"> CONSU</tspan><tspan class="cls-5" x="289.5" y="0">LT</tspan><tspan x="332.29" y="0">ANC</tspan><tspan class="cls-3" x="418.69" y="0">Y</tspan></text><text x="-54.38" y="-186.46"/><text class="cls-6" transform="translate(0 335.33)">COMMITED <tspan class="cls-7" x="109.43" y="0">T</tspan><tspan x="120.77" y="0">O PROTECTING WH</tspan><tspan class="cls-8" x="303.52" y="0">A</tspan><tspan x="315.91" y="0">T M</tspan><tspan class="cls-8" x="348.84" y="0">A</tspan><tspan x="361.24" y="0">TTER </tspan><tspan class="cls-7" x="416.48" y="0">T</tspan><tspan x="427.82" y="0">O</tspan><tspan class="cls-7" x="442.7" y="0"> </tspan><tspan x="447.67" y="0">YOU</tspan></text></svg>